<?xml version="1.0" encoding="UTF-8" standalone="no"?>
<!-- Created with Inkscape (http://www.inkscape.org/) -->

<svg
   version="1.1"
   id="svg1"
   width="64"
   height="64"
   viewBox="0 0 64 64"
   xmlns="http://www.w3.org/2000/svg"
   xmlns:svg="http://www.w3.org/2000/svg">
  <defs
     id="defs1" />
  <g
     id="g1" />
  <g
     id="layer1">
    <g
       id="g2"
       transform="matrix(0.1384646,0,0,0.1384646,-3.4469375,-3.4094909)">
      <path
         style="fill:#ff00ff;stroke:#ff00ff;stroke-width:23.3;stroke-dasharray:none;stroke-opacity:1"
         d="m 123,168 v 78 H 80 c -5.549133,0 -12.611809,-1.1315 -16.257713,4.1088 C 59.089012,256.797 62,272.11127 62,280 c 0,6.61481 -2.278042,18.46774 2.43364,23.77161 C 69.835236,309.85211 84.61377,306.9967 92,307 c 3.499023,0.002 8.68311,-0.77637 10.39661,3.14813 C 105.30383,316.80676 103,328.77777 103,336 v 62 c 0,7.35239 -2.48407,20.34921 1.17901,26.89197 5.93325,10.59759 21.04156,0.20462 28.30787,6.71142 3.03639,2.71903 3.90277,8.79572 5.77546,12.39661 3.69246,7.10004 9.14212,13.23724 15.73766,17.77933 28.70108,19.7652 73.66356,4.35525 79,-31.77933 h 156 c 0,9.45621 -5.04367,47.03845 13.98456,39.83719 C 413.4061,465.89313 409,442.04089 409,433 c 0,-38.66638 -0.0796,-77.33374 0,-116 0.0431,-20.92148 28.61996,-2.03192 38.56635,-13.22839 C 452.27802,298.46771 450,286.61481 450,280 c 0,-7.88873 2.91098,-23.203 -1.74228,-29.8912 C 444.61182,244.8685 437.54916,246 432,246 h -43 v -78 c 23.81656,13.83514 56.6156,0.33145 60.69986,-28 2.84897,-19.76257 -7.80563,-43.929321 -12.5733,-63 -2.20618,-8.824707 -3.16471,-25.938538 -9.55634,-32.605713 C 422.68542,39.29892 413.36346,41 407,41 H 352 153 104 C 97.84359,41 89.15596,39.464386 84.429787,44.394287 78.038139,51.061462 77.079636,68.175293 74.873459,77 70.180229,95.772919 59.638702,119.66364 62.158951,139 65.904579,167.73792 98.618553,182.16327 123,168 m 0,-107 v 53 c 0,8.55487 1.54476,18.86713 -1.56327,27 -6.57176,17.19653 -32.431565,15.97421 -38.327935,-1 -2.869507,-8.26059 1.574806,-17.996 3.739975,-26 C 91.579956,96.510193 96.33786,78.742737 100,61 h 23 m 61,0 v 40 27 c 0,5.03986 0.50323,10.44681 -2.08951,15 -6.82705,11.98926 -24.21037,14.22955 -33.52006,3.81482 C 142.72615,140.47821 143,131.92419 143,124 V 82 c 0,-4.380768 -2.15062,-16.998993 1.60339,-19.972229 C 147.22147,59.954224 152.87846,61 156,61 h 28 m 21,0 h 28 c 3.12157,0 8.77855,-1.045776 11.39661,1.027771 C 248.1506,65.000977 246,77.619202 246,82 v 42 c 0,8.07483 0.44574,16.43152 -5.34027,22.89505 C 224.72708,164.69333 205.00116,146.22446 205,128 V 101 61 m 102,0 v 40 27 c -10e-4,18.59247 -19.47339,36.36136 -35.65973,18.81482 C 265.49231,140.47546 266,131.99597 266,124 V 82 c 0,-4.380798 -2.1506,-16.998993 1.60339,-19.972229 C 270.22137,59.954285 275.87851,61 279,61 h 28 m 21,0 h 28 c 3.12146,0 8.77863,-1.045715 11.39661,1.027771 C 371.15057,65.000977 369,77.619202 369,82 v 42 c 0,7.92422 0.27386,16.47818 -5.39044,22.81482 -9.30972,10.41476 -26.693,8.17444 -33.52005,-3.81482 C 327.49677,138.44678 328,133.03989 328,128 V 101 61 m 84,0 c 3.80957,18.45694 9.05542,36.715515 13.62656,55 2.03518,8.14078 6.25952,17.75821 2.89041,26 -6.93338,16.96097 -31.58649,15.23245 -38.03778,-1 C 387.40936,133.27585 389,123.17429 389,115 V 61 h 23 m -217,99 c 12.38187,12.1181 28.40085,17.37695 45,10.93134 4.91556,-1.90876 10.83704,-8.80326 16,-8.80326 5.16296,0 11.08441,6.89447 16,8.80326 16.59912,6.44561 32.61816,1.18676 45,-10.93134 h 1 c 17.16635,17.02234 29.90692,12.62973 51,9 v 77 H 143 v -77 c 14.08064,2.423 24.96858,8.10272 39,0.67285 4.84737,-2.56674 8.5575,-6.55572 13,-9.67285 m 235,106 v 21 H 82 v -21 h 348 m -41,41 V 410 H 285 c -14.35962,0 -34.09784,3.56824 -47.8912,-0.3179 C 231.87036,408.20624 229.06497,395.41943 225.84105,391 216.91989,378.77069 202.53114,369.19461 187,369.00385 170.04901,368.79565 156.48105,375.31799 145.17361,388 136.0285,398.25684 138.4877,410 123,410 V 307 h 266 m -210,82.32562 c 38.8797,-6.49496 50.10643,53.83539 11,60.58951 -39.25726,6.78015 -50.40109,-54.00748 -11,-60.58951 z"
         id="path1" />
      <path
         d="m 112.54764,311.38493 a 5.3492638,5.3492638 0 0 1 -7.56029,0 l -30.312505,-30.3125 a 5.3492638,5.3492638 0 0 1 0,-7.56029 l 30.312505,-30.3125 a 5.3563962,5.3563962 0 0 1 7.43191,0.12838 5.3563962,5.3563962 0 0 1 0.12838,7.43192 l -21.183095,21.18308 h 53.064705 a 5.349265,5.349265 0 0 1 0,10.69853 H 91.364545 l 21.183095,21.18308 a 5.3492638,5.3492638 0 0 1 0,7.5603 z"
         id="path1-5"
         style="fill:#ffffff;stroke-width:7.13235" />
      <path
         d="m 199.02671,244.93153 a 5.1781608,5.1781608 0 0 0 -6.69709,0 l -25.8908,21.96576 a 5.1781608,5.1781608 0 0 0 -1.82962,3.94921 v 32.46016 a 5.1781608,5.1781608 0 0 0 5.17816,5.17816 h 16.39751 a 2.5890804,2.5890804 0 0 0 2.58908,-2.58908 v -21.57567 h 13.80843 v 21.57567 c 0,1.42918 1.15991,2.58908 2.58908,2.58908 h 16.39751 a 5.1781608,5.1781608 0 0 0 5.17816,-5.17816 V 270.8465 a 5.1781608,5.1781608 0 0 0 -1.82962,-3.94921 z"
         id="path1-2"
         style="fill:#ffffff;stroke-width:3.45211" />
      <path
         style="fill:#ffffff;stroke:none;stroke-width:23.3;stroke-dasharray:none;stroke-opacity:1"
         id="rect1"
         width="204.79999"
         height="56.496552"
         x="254.23448"
         y="262.47354"
         d="m 277.23448,262.47354 h 158.79999 a 23,23 45 0 1 23,23 v 10.49655 a 23,23 135 0 1 -23,23 l -158.79999,0 a 23,23 45 0 1 -23,-23 v -10.49655 a 23,23 135 0 1 23,-23 z"
         transform="translate(-12.947126,-14.124137)" />
    </g>
  </g>
</svg>
